{
	"asset":{
		"version":"2.0",
		"generator":"Created using the official Cinema 4D glTF Exporter 1.000x284978"
	},
	"scenes":[{
		"nodes":[0,
		1,
		4,
		9]
	}],
	"nodes":[{
		"name":"摄像机",
		"translation":[1747.79296875,
		1327.503173828125,
		5052.43505859375],
		"rotation":[0.11891886591911316,
		-0.1387505680322647,
		-0.01678510010242462,
		-0.9830182194709778],
		"scale":[1.0,
		1.0,
		1.0],
		"camera":0
	},
	{
		"name":"细分曲面",
		"translation":[144.21238708496095,
		25.06439781188965,
		-32.2187614440918],
		"rotation":[0.0,
		0.0,
		0.0,
		-1.0],
		"scale":[1.0,
		1.0,
		1.0],
		"children":[2]
	},
	{
		"name":"挤压",
		"children":[3]
	},
	{
		"name":"挤压",
		"mesh":0
	},
	{
		"name":"布尔",
		"translation":[0.0,
		0.0,
		2.498992681503296],
		"rotation":[0.0,
		0.0,
		0.0,
		-1.0],
		"scale":[1.0,
		1.0,
		1.0],
		"children":[5,
		6]
	},
	{
		"name":"细分曲面",
		"mesh":1
	},
	{
		"name":"克隆",
		"translation":[1.9674720764160157,
		0.0,
		-61.740169525146487],
		"rotation":[0.0,
		0.0,
		0.0,
		-1.0],
		"scale":[1.0,
		1.0,
		1.0],
		"children":[7,
		8]
	},
	{
		"name":"挤压 3",
		"translation":[50.0,
		0.0,
		320.0],
		"rotation":[0.0,
		-1.0,
		0.0,
		-2.832769343193999e-16],
		"scale":[1.0,
		1.0,
		1.0],
		"mesh":2
	},
	{
		"name":"挤压 4",
		"translation":[-20.0,
		0.0,
		-9.797174397164869e-15],
		"rotation":[0.0,
		-5.665538686387998e-16,
		0.0,
		1.0],
		"scale":[1.0,
		1.0,
		1.0],
		"mesh":3
	},
	{
		"name":"细分曲面.1",
		"children":[10]
	},
	{
		"name":"球体",
		"mesh":4
	}],
	"meshes":[{
		"name":"挤压",
		"primitives":[{
			"attributes":{
				"POSITION":1,
				"NORMAL":2,
				"TEXCOORD_0":3
			},
			"indices":0,
			"material":0
		}]
	},
	{
		"name":"细分曲面",
		"primitives":[{
			"attributes":{
				"POSITION":5,
				"NORMAL":6,
				"TEXCOORD_0":7
			},
			"indices":4,
			"material":1
		}]
	},
	{
		"name":"挤压 3",
		"primitives":[{
			"attributes":{
				"POSITION":9,
				"NORMAL":10,
				"TEXCOORD_0":11
			},
			"indices":8
		}]
	},
	{
		"name":"挤压 4",
		"primitives":[{
			"attributes":{
				"POSITION":13,
				"NORMAL":14,
				"TEXCOORD_0":15
			},
			"indices":12
		}]
	},
	{
		"name":"球体",
		"primitives":[{
			"attributes":{
				"POSITION":17,
				"NORMAL":18,
				"TEXCOORD_0":19
			},
			"indices":16,
			"material":0
		}]
	}],
	"cameras":[{
		"type":"perspective",
		"perspective":{
			"znear":0.009999999776482582,
			"zfar":10000000000.0,
			"aspectRatio":1.7777777910232545,
			"yfov":0.5483348965644836
		}
	}],
	"accessors":[{
		"bufferView":0,
		"type":"SCALAR",
		"componentType":5123,
		"count":75936,
		"byteOffset":0,
		"min":[0],
		"max":[14268]
	},
	{
		"bufferView":1,
		"type":"VEC3",
		"componentType":5126,
		"count":14269,
		"byteOffset":0,
		"min":[821.2584228515625,
		-38.573726654052737,
		-10.540210723876954],
		"max":[971.0595092773438,
		105.66471099853516,
		100.88487243652344]
	},
	{
		"bufferView":1,
		"type":"VEC3",
		"componentType":5126,
		"count":14269,
		"byteOffset":12,
		"min":[-1.0,
		-1.0,
		-1.0],
		"max":[0.9999999403953552,
		1.0,
		1.0]
	},
	{
		"bufferView":1,
		"type":"VEC2",
		"componentType":5126,
		"count":14269,
		"byteOffset":24,
		"min":[0.0,
		0.0],
		"max":[1.0,
		1.0]
	},
	{
		"bufferView":2,
		"type":"SCALAR",
		"componentType":5123,
		"count":1248,
		"byteOffset":0,
		"min":[0],
		"max":[281]
	},
	{
		"bufferView":3,
		"type":"VEC3",
		"componentType":5126,
		"count":282,
		"byteOffset":0,
		"min":[-776.9099731445313,
		-629.3743286132813,
		152.30271911621095],
		"max":[810.8449096679688,
		-192.56600952148438,
		237.169921875]
	},
	{
		"bufferView":3,
		"type":"VEC3",
		"componentType":5126,
		"count":282,
		"byteOffset":12,
		"min":[-0.34411394596099856,
		-0.2743603587150574,
		0.9062221646308899],
		"max":[0.41136255860328677,
		-0.07522733509540558,
		0.9837066531181336]
	},
	{
		"bufferView":3,
		"type":"VEC2",
		"componentType":5126,
		"count":282,
		"byteOffset":24,
		"min":[0.6019940376281738,
		0.5620602369308472],
		"max":[0.9077609777450562,
		0.7182600498199463]
	},
	{
		"bufferView":4,
		"type":"SCALAR",
		"componentType":5123,
		"count":315,
		"byteOffset":0,
		"min":[0],
		"max":[110]
	},
	{
		"bufferView":5,
		"type":"VEC3",
		"componentType":5126,
		"count":111,
		"byteOffset":0,
		"min":[-758.87744140625,
		-629.3743286132813,
		24.26388168334961],
		"max":[-49.0958137512207,
		-192.56600952148438,
		320.0]
	},
	{
		"bufferView":5,
		"type":"VEC3",
		"componentType":5126,
		"count":111,
		"byteOffset":12,
		"min":[-0.9018138647079468,
		-0.9999698996543884,
		-0.000017623728126636707],
		"max":[0.48230791091918948,
		0.8760334849357605,
		1.0]
	},
	{
		"bufferView":5,
		"type":"VEC2",
		"componentType":5126,
		"count":111,
		"byteOffset":24,
		"min":[0.0,
		0.0],
		"max":[1.0,
		1.0]
	},
	{
		"bufferView":6,
		"type":"SCALAR",
		"componentType":5123,
		"count":309,
		"byteOffset":0,
		"min":[0],
		"max":[108]
	},
	{
		"bufferView":7,
		"type":"VEC3",
		"componentType":5126,
		"count":109,
		"byteOffset":0,
		"min":[-758.87744140625,
		-629.3743286132813,
		0.0],
		"max":[-49.0958137512207,
		-192.56600952148438,
		298.91009521484377]
	},
	{
		"bufferView":7,
		"type":"VEC3",
		"componentType":5126,
		"count":109,
		"byteOffset":12,
		"min":[-0.9018140435218811,
		-0.9999698996543884,
		-1.0],
		"max":[0.48225903511047366,
		0.8760361075401306,
		0.0001305886107729748]
	},
	{
		"bufferView":7,
		"type":"VEC2",
		"componentType":5126,
		"count":109,
		"byteOffset":24,
		"min":[0.0,
		0.0],
		"max":[1.0,
		0.9340939521789551]
	},
	{
		"bufferView":8,
		"type":"SCALAR",
		"componentType":5123,
		"count":66048,
		"byteOffset":0,
		"min":[0],
		"max":[11594]
	},
	{
		"bufferView":9,
		"type":"VEC3",
		"componentType":5126,
		"count":11595,
		"byteOffset":0,
		"min":[-988.02685546875,
		-998.428466796875,
		-283.5341796875],
		"max":[988.02685546875,
		1295.9771728515626,
		283.5341796875]
	},
	{
		"bufferView":9,
		"type":"VEC3",
		"componentType":5126,
		"count":11595,
		"byteOffset":12,
		"min":[-0.9999999403953552,
		-1.0,
		-1.0],
		"max":[0.9999999403953552,
		0.9999738335609436,
		1.0]
	},
	{
		"bufferView":9,
		"type":"VEC2",
		"componentType":5126,
		"count":11595,
		"byteOffset":24,
		"min":[0.0,
		0.00651041604578495],
		"max":[1.0,
		0.98046875]
	}],
	"materials":[{
		"pbrMetallicRoughness":{
			"baseColorFactor":[0.02,
			0.02,
			0.02,
			1.0],
			"metallicFactor":0.0,
			"roughnessFactor":0.93
		},
		"emissiveFactor":[0.0,
		0.0,
		0.0],
		"alphaMode":"OPAQUE",
		"doubleSided":true,
		"name":"材质.1"
	},
	{
		"pbrMetallicRoughness":{
			"baseColorFactor":[1.0,
			1.0,
			1.0,
			1.0],
			"metallicFactor":0.0,
			"roughnessFactor":0.5
		},
		"emissiveFactor":[0.0,
		0.0,
		0.0],
		"alphaMode":"OPAQUE",
		"doubleSided":true,
		"name":"材质"
	}],
	"bufferViews":[{
		"buffer":0,
		"byteOffset":0,
		"byteLength":151872,
		"target":34963
	},
	{
		"buffer":0,
		"byteOffset":151872,
		"byteLength":456608,
		"target":34962,
		"byteStride":32
	},
	{
		"buffer":1,
		"byteOffset":0,
		"byteLength":2496,
		"target":34963
	},
	{
		"buffer":1,
		"byteOffset":2496,
		"byteLength":9024,
		"target":34962,
		"byteStride":32
	},
	{
		"buffer":2,
		"byteOffset":0,
		"byteLength":630,
		"target":34963
	},
	{
		"buffer":2,
		"byteOffset":632,
		"byteLength":3552,
		"target":34962,
		"byteStride":32
	},
	{
		"buffer":3,
		"byteOffset":0,
		"byteLength":618,
		"target":34963
	},
	{
		"buffer":3,
		"byteOffset":620,
		"byteLength":3488,
		"target":34962,
		"byteStride":32
	},
	{
		"buffer":4,
		"byteOffset":0,
		"byteLength":132096,
		"target":34963
	},
	{
		"buffer":4,
		"byteOffset":132096,
		"byteLength":371040,
		"target":34962,
		"byteStride":32
	}],
	"buffers":[{
		"uri":"data:application/octet-stream;base64,",
		"byteLength":608480
	},
	{
		"uri":"data:application/octet-stream;base64,",
		"byteLength":11520
	},
	{
		"uri":"data:application/octet-stream;base64,",
		"byteLength":4184
	},
	{
		"uri":"data:application/octet-stream;base64,",
		"byteLength":4108
	},
	{
		"uri":"data:application/octet-stream;base64,",
		"byteLength":503136
	}]
}