{
	"asset":{
		"version":"2.0",
		"generator":"Created using the official Cinema 4D glTF Exporter 1.000x284978"
	},
	"scenes":[{
		"nodes":[0,
		1,
		2,
		7,
		8,
		9]
	}],
	"nodes":[{
		"name":"立方体",
		"translation":[21278.810546875,
		403930.90625,
		0.0],
		"rotation":[0.0,
		0.0,
		0.0,
		-1.0],
		"scale":[1.0,
		1.0,
		1.0],
		"mesh":0
	},
	{
		"name":"立方体.1",
		"translation":[21278.810546875,
		403930.90625,
		0.0],
		"rotation":[0.0,
		0.0,
		0.0,
		-1.0],
		"scale":[1.0,
		1.0,
		1.0],
		"mesh":1
	},
	{
		"name":"挤压",
		"mesh":2,
		"children":[3,
		5]
	},
	{
		"name":"平滑 1",
		"translation":[0.0,
		0.0,
		0.0],
		"rotation":[-0.7071067690849304,
		0.0,
		0.0,
		-0.7071067690849304],
		"scale":[1.0,
		1.0,
		1.0],
		"mesh":3,
		"children":[4]
	},
	{
		"name":"封顶 1",
		"mesh":4
	},
	{
		"name":"平滑 2",
		"translation":[0.0,
		0.0,
		0.0],
		"rotation":[-0.7071067690849304,
		0.0,
		0.0,
		-0.7071067690849304],
		"scale":[1.0,
		1.0,
		1.0],
		"mesh":5,
		"children":[6]
	},
	{
		"name":"封顶 2",
		"mesh":6
	},
	{
		"name":"平面",
		"translation":[0.0,
		-417838.3125,
		0.0],
		"rotation":[0.0,
		0.0,
		0.0,
		-1.0],
		"scale":[1.0,
		1.0,
		1.0],
		"mesh":7
	},
	{
		"name":"胶囊",
		"translation":[0.0,
		518366.1875,
		0.0],
		"rotation":[-0.7071067690849304,
		0.0,
		0.0,
		-0.7071067690849304],
		"scale":[1.0,
		1.0,
		1.0],
		"mesh":8
	},
	{
		"name":"胶囊.1",
		"translation":[0.0,
		518366.1875,
		-42.951927185058597],
		"rotation":[0.7071067690849304,
		0.0,
		0.0,
		-0.7071067690849304],
		"scale":[1.0,
		1.0,
		1.0],
		"mesh":9
	}],
	"meshes":[{
		"name":"立方体",
		"primitives":[{
			"attributes":{
				"POSITION":1,
				"NORMAL":2,
				"TEXCOORD_0":3
			},
			"indices":0,
			"material":0
		}]
	},
	{
		"name":"立方体.1",
		"primitives":[{
			"attributes":{
				"POSITION":5,
				"NORMAL":6,
				"TEXCOORD_0":7
			},
			"indices":4
		}]
	},
	{
		"name":"挤压",
		"primitives":[{
			"attributes":{
				"POSITION":9,
				"NORMAL":10,
				"TEXCOORD_0":11
			},
			"indices":8
		}]
	},
	{
		"name":"平滑 1",
		"primitives":[{
			"attributes":{
				"POSITION":13,
				"NORMAL":14,
				"TEXCOORD_0":15
			},
			"indices":12
		}]
	},
	{
		"name":"封顶 1",
		"primitives":[{
			"attributes":{
				"POSITION":17,
				"NORMAL":18,
				"TEXCOORD_0":19
			},
			"indices":16
		}]
	},
	{
		"name":"平滑 2",
		"primitives":[{
			"attributes":{
				"POSITION":21,
				"NORMAL":22,
				"TEXCOORD_0":23
			},
			"indices":20
		}]
	},
	{
		"name":"封顶 2",
		"primitives":[{
			"attributes":{
				"POSITION":25,
				"NORMAL":26,
				"TEXCOORD_0":27
			},
			"indices":24
		}]
	},
	{
		"name":"平面",
		"primitives":[{
			"attributes":{
				"POSITION":29,
				"NORMAL":30,
				"TEXCOORD_0":31
			},
			"indices":28
		}]
	},
	{
		"name":"胶囊",
		"primitives":[{
			"attributes":{
				"POSITION":33,
				"NORMAL":34,
				"TEXCOORD_0":35
			},
			"indices":32,
			"material":1
		}]
	},
	{
		"name":"胶囊.1",
		"primitives":[{
			"attributes":{
				"POSITION":37,
				"NORMAL":38,
				"TEXCOORD_0":39
			},
			"indices":36
		}]
	}],
	"accessors":[{
		"bufferView":0,
		"type":"SCALAR",
		"componentType":5123,
		"count":2052,
		"byteOffset":0,
		"min":[0],
		"max":[509]
	},
	{
		"bufferView":1,
		"type":"VEC3",
		"componentType":5126,
		"count":510,
		"byteOffset":0,
		"min":[-653381.0625,
		-392028.625,
		-1343381.125],
		"max":[653381.0625,
		653381.0625,
		1343381.125]
	},
	{
		"bufferView":1,
		"type":"VEC3",
		"componentType":5126,
		"count":510,
		"byteOffset":12,
		"min":[-0.9986321330070496,
		-0.9943870306015015,
		-0.9986335039138794],
		"max":[0.9986321330070496,
		1.0,
		0.9986321330070496]
	},
	{
		"bufferView":1,
		"type":"VEC2",
		"componentType":5126,
		"count":510,
		"byteOffset":24,
		"min":[0.0,
		0.0],
		"max":[1.0,
		1.0]
	},
	{
		"bufferView":2,
		"type":"SCALAR",
		"componentType":5123,
		"count":5040,
		"byteOffset":0,
		"min":[0],
		"max":[2111]
	},
	{
		"bufferView":3,
		"type":"VEC3",
		"componentType":5126,
		"count":2112,
		"byteOffset":0,
		"min":[-670195.5625,
		-392028.625,
		-1360195.625],
		"max":[670195.5625,
		-119258.3203125,
		1360195.625]
	},
	{
		"bufferView":3,
		"type":"VEC3",
		"componentType":5126,
		"count":2112,
		"byteOffset":12,
		"min":[-0.9986321330070496,
		-1.0,
		-0.9986321330070496],
		"max":[0.9986321330070496,
		1.0,
		0.9986321330070496]
	},
	{
		"bufferView":3,
		"type":"VEC2",
		"componentType":5126,
		"count":2112,
		"byteOffset":24,
		"min":[-0.000003874301910400391,
		0.0],
		"max":[1.000008463859558,
		1.0]
	},
	{
		"bufferView":4,
		"type":"SCALAR",
		"componentType":5123,
		"count":432,
		"byteOffset":0,
		"min":[0],
		"max":[159]
	},
	{
		"bufferView":5,
		"type":"VEC3",
		"componentType":5126,
		"count":160,
		"byteOffset":0,
		"min":[-1235000.0,
		-1.2307700691938096e-10,
		-2010000.0],
		"max":[1235000.0,
		20000.0,
		2010000.0]
	},
	{
		"bufferView":5,
		"type":"VEC3",
		"componentType":5126,
		"count":160,
		"byteOffset":12,
		"min":[-1.0,
		0.0,
		-1.0],
		"max":[1.0,
		0.0,
		1.0]
	},
	{
		"bufferView":5,
		"type":"VEC2",
		"componentType":5126,
		"count":160,
		"byteOffset":24,
		"min":[0.0,
		0.0],
		"max":[1.0,
		1.0]
	},
	{
		"bufferView":6,
		"type":"SCALAR",
		"componentType":5123,
		"count":864,
		"byteOffset":0,
		"min":[0],
		"max":[239]
	},
	{
		"bufferView":7,
		"type":"VEC3",
		"componentType":5126,
		"count":240,
		"byteOffset":0,
		"min":[-1235000.0,
		-2010000.0,
		-1.5777218104420237e-26],
		"max":[1235000.0,
		2010000.0,
		10000.0]
	},
	{
		"bufferView":7,
		"type":"VEC3",
		"componentType":5126,
		"count":240,
		"byteOffset":12,
		"min":[-0.9238799810409546,
		-0.9238799214363098,
		0.3826752305030823],
		"max":[0.9238799810409546,
		0.9238799214363098,
		0.9240202903747559]
	},
	{
		"bufferView":7,
		"type":"VEC2",
		"componentType":5126,
		"count":240,
		"byteOffset":24,
		"min":[0.0,
		0.0],
		"max":[1.0,
		1.0]
	},
	{
		"bufferView":8,
		"type":"SCALAR",
		"componentType":5123,
		"count":210,
		"byteOffset":0,
		"min":[0],
		"max":[71]
	},
	{
		"bufferView":9,
		"type":"VEC3",
		"componentType":5126,
		"count":72,
		"byteOffset":0,
		"min":[-1225000.0,
		-2000000.0,
		10000.0],
		"max":[1225000.0,
		2000000.0,
		10000.0]
	},
	{
		"bufferView":9,
		"type":"VEC3",
		"componentType":5126,
		"count":72,
		"byteOffset":12,
		"min":[0.0,
		-9.011550516162182e-20,
		1.0],
		"max":[0.0,
		0.0,
		1.0]
	},
	{
		"bufferView":9,
		"type":"VEC2",
		"componentType":5126,
		"count":72,
		"byteOffset":24,
		"min":[0.0,
		0.0],
		"max":[0.9741373062133789,
		1.0]
	},
	{
		"bufferView":10,
		"type":"SCALAR",
		"componentType":5123,
		"count":864,
		"byteOffset":0,
		"min":[0],
		"max":[239]
	},
	{
		"bufferView":11,
		"type":"VEC3",
		"componentType":5126,
		"count":240,
		"byteOffset":0,
		"min":[-1235000.0,
		-2010000.0,
		-30000.0],
		"max":[1235000.0,
		2010000.0,
		-20000.0]
	},
	{
		"bufferView":11,
		"type":"VEC3",
		"componentType":5126,
		"count":240,
		"byteOffset":12,
		"min":[-0.9238799214363098,
		-0.9238799810409546,
		-0.9240202903747559],
		"max":[0.9238799214363098,
		0.9238799810409546,
		-0.3826752305030823]
	},
	{
		"bufferView":11,
		"type":"VEC2",
		"componentType":5126,
		"count":240,
		"byteOffset":24,
		"min":[0.0,
		0.0],
		"max":[1.0,
		1.0]
	},
	{
		"bufferView":12,
		"type":"SCALAR",
		"componentType":5123,
		"count":210,
		"byteOffset":0,
		"min":[0],
		"max":[71]
	},
	{
		"bufferView":13,
		"type":"VEC3",
		"componentType":5126,
		"count":72,
		"byteOffset":0,
		"min":[-1225000.0,
		-2000000.0,
		-30000.0],
		"max":[1225000.0,
		2000000.0,
		-30000.0]
	},
	{
		"bufferView":13,
		"type":"VEC3",
		"componentType":5126,
		"count":72,
		"byteOffset":12,
		"min":[0.0,
		-7.482376712645189e-16,
		-1.0],
		"max":[2.038685484263749e-15,
		0.0,
		-1.0]
	},
	{
		"bufferView":13,
		"type":"VEC2",
		"componentType":5126,
		"count":72,
		"byteOffset":24,
		"min":[0.0,
		0.0],
		"max":[1.0,
		0.8655240535736084]
	},
	{
		"bufferView":14,
		"type":"SCALAR",
		"componentType":5123,
		"count":6,
		"byteOffset":0,
		"min":[0],
		"max":[3]
	},
	{
		"bufferView":15,
		"type":"VEC3",
		"componentType":5126,
		"count":4,
		"byteOffset":0,
		"min":[-2000000.0,
		0.0,
		-2000000.0],
		"max":[2000000.0,
		0.0,
		2000000.0]
	},
	{
		"bufferView":15,
		"type":"VEC3",
		"componentType":5126,
		"count":4,
		"byteOffset":12,
		"min":[0.0,
		1.0,
		0.0],
		"max":[0.0,
		1.0,
		0.0]
	},
	{
		"bufferView":15,
		"type":"VEC2",
		"componentType":5126,
		"count":4,
		"byteOffset":24,
		"min":[0.0,
		0.0],
		"max":[1.0,
		1.0]
	},
	{
		"bufferView":16,
		"type":"SCALAR",
		"componentType":5123,
		"count":5616,
		"byteOffset":0,
		"min":[0],
		"max":[1181]
	},
	{
		"bufferView":17,
		"type":"VEC3",
		"componentType":5126,
		"count":1182,
		"byteOffset":0,
		"min":[-510000.0,
		0.0,
		-510000.0],
		"max":[510000.0,
		1095000.0,
		510000.0]
	},
	{
		"bufferView":17,
		"type":"VEC3",
		"componentType":5126,
		"count":1182,
		"byteOffset":12,
		"min":[-1.0,
		-1.0,
		-1.0],
		"max":[1.0,
		1.0,
		1.0]
	},
	{
		"bufferView":17,
		"type":"VEC2",
		"componentType":5126,
		"count":1182,
		"byteOffset":24,
		"min":[0.0,
		0.0],
		"max":[1.0,
		0.5]
	},
	{
		"bufferView":18,
		"type":"SCALAR",
		"componentType":5123,
		"count":5616,
		"byteOffset":0,
		"min":[0],
		"max":[1181]
	},
	{
		"bufferView":19,
		"type":"VEC3",
		"componentType":5126,
		"count":1182,
		"byteOffset":0,
		"min":[-510000.0,
		0.0,
		-510000.0],
		"max":[510000.0,
		1095000.0,
		510000.0]
	},
	{
		"bufferView":19,
		"type":"VEC3",
		"componentType":5126,
		"count":1182,
		"byteOffset":12,
		"min":[-1.0,
		-1.0,
		-1.0],
		"max":[1.0,
		1.0,
		1.0]
	},
	{
		"bufferView":19,
		"type":"VEC2",
		"componentType":5126,
		"count":1182,
		"byteOffset":24,
		"min":[0.0,
		0.0],
		"max":[1.0,
		0.5]
	}],
	"materials":[{
		"pbrMetallicRoughness":{
			"baseColorFactor":[1.0,
			1.0,
			1.0,
			0.0],
			"metallicFactor":1.0,
			"roughnessFactor":1.0
		},
		"emissiveFactor":[0.0,
		0.0,
		0.0],
		"alphaMode":"BLEND",
		"doubleSided":true,
		"name":"材质"
	},
	{
		"pbrMetallicRoughness":{
			"baseColorFactor":[0.9764705882352941,
			0.8784313725490197,
			0.4901960784313726,
			1.0],
			"metallicFactor":1.0,
			"roughnessFactor":0.1
		},
		"emissiveFactor":[0.0,
		0.0,
		0.0],
		"alphaMode":"OPAQUE",
		"doubleSided":true,
		"name":"材质.1"
	}],
	"bufferViews":[{
		"buffer":0,
		"byteOffset":0,
		"byteLength":4104,
		"target":34963
	},
	{
		"buffer":0,
		"byteOffset":4104,
		"byteLength":16320,
		"target":34962,
		"byteStride":32
	},
	{
		"buffer":1,
		"byteOffset":0,
		"byteLength":10080,
		"target":34963
	},
	{
		"buffer":1,
		"byteOffset":10080,
		"byteLength":67584,
		"target":34962,
		"byteStride":32
	},
	{
		"buffer":2,
		"byteOffset":0,
		"byteLength":864,
		"target":34963
	},
	{
		"buffer":2,
		"byteOffset":864,
		"byteLength":5120,
		"target":34962,
		"byteStride":32
	},
	{
		"buffer":3,
		"byteOffset":0,
		"byteLength":1728,
		"target":34963
	},
	{
		"buffer":3,
		"byteOffset":1728,
		"byteLength":7680,
		"target":34962,
		"byteStride":32
	},
	{
		"buffer":4,
		"byteOffset":0,
		"byteLength":420,
		"target":34963
	},
	{
		"buffer":4,
		"byteOffset":420,
		"byteLength":2304,
		"target":34962,
		"byteStride":32
	},
	{
		"buffer":5,
		"byteOffset":0,
		"byteLength":1728,
		"target":34963
	},
	{
		"buffer":5,
		"byteOffset":1728,
		"byteLength":7680,
		"target":34962,
		"byteStride":32
	},
	{
		"buffer":6,
		"byteOffset":0,
		"byteLength":420,
		"target":34963
	},
	{
		"buffer":6,
		"byteOffset":420,
		"byteLength":2304,
		"target":34962,
		"byteStride":32
	},
	{
		"buffer":7,
		"byteOffset":0,
		"byteLength":12,
		"target":34963
	},
	{
		"buffer":7,
		"byteOffset":12,
		"byteLength":128,
		"target":34962,
		"byteStride":32
	},
	{
		"buffer":8,
		"byteOffset":0,
		"byteLength":11232,
		"target":34963
	},
	{
		"buffer":8,
		"byteOffset":11232,
		"byteLength":37824,
		"target":34962,
		"byteStride":32
	},
	{
		"buffer":9,
		"byteOffset":0,
		"byteLength":11232,
		"target":34963
	},
	{
		"buffer":9,
		"byteOffset":11232,
		"byteLength":37824,
		"target":34962,
		"byteStride":32
	}],
	"buffers":[{
		"uri":"data:application/octet-stream;base64,",
		"byteLength":20424
	},
	{
		"uri":"data:application/octet-stream;base64,",
		"byteLength":77664
	},
	{
		"uri":"data:application/octet-stream;base64,",
		"byteLength":5984
	},
	{
		"uri":"data:application/octet-stream;base64,",
		"byteLength":9408
	},
	{
		"uri":"data:application/octet-stream;base64,",
		"byteLength":2724
	},
	{
		"uri":"data:application/octet-stream;base64,",
		"byteLength":9408
	},
	{
		"uri":"data:application/octet-stream;base64,",
		"byteLength":2724
	},
	{
		"uri":"data:application/octet-stream;base64,",
		"byteLength":140
	},
	{
		"uri":"data:application/octet-stream;base64,",
		"byteLength":49056
	},
	{
		"uri":"data:application/octet-stream;base64,",
		"byteLength":49056
	}]
}